<?xml version="1.0" encoding="UTF-8" standalone="no"?>
<svg
   xmlns:dc="http://purl.org/dc/elements/1.1/"
   xmlns:cc="http://creativecommons.org/ns#"
   xmlns:rdf="http://www.w3.org/1999/02/22-rdf-syntax-ns#"
   xmlns:svg="http://www.w3.org/2000/svg"
   xmlns="http://www.w3.org/2000/svg"
   xmlns:sodipodi="http://sodipodi.sourceforge.net/DTD/sodipodi-0.dtd"
   xmlns:inkscape="http://www.inkscape.org/namespaces/inkscape"
   version="1.1"
   id="svg2"
   xml:space="preserve"
   width="1333.3333"
   height="1333.3333"
   viewBox="0 0 1333.3333 1333.3333"
   sodipodi:docname="Up-wind-logo.ai"><metadata
     id="metadata8"><rdf:RDF><cc:Work
         rdf:about=""><dc:format>image/svg+xml</dc:format><dc:type
           rdf:resource="http://purl.org/dc/dcmitype/StillImage" /></cc:Work></rdf:RDF></metadata><defs
     id="defs6"><clipPath
       clipPathUnits="userSpaceOnUse"
       id="clipPath18"><path
         d="M 0,1000 H 1000 V 0 H 0 Z"
         id="path16" /></clipPath></defs><sodipodi:namedview
     pagecolor="#ffffff"
     bordercolor="#666666"
     borderopacity="1"
     objecttolerance="10"
     gridtolerance="10"
     guidetolerance="10"
     inkscape:pageopacity="0"
     inkscape:pageshadow="2"
     inkscape:window-width="640"
     inkscape:window-height="480"
     id="namedview4" /><g
     id="g10"
     inkscape:groupmode="layer"
     inkscape:label="Up-wind-logo"
     transform="matrix(1.3333333,0,0,-1.3333333,0,1333.3333)"><g
       id="g12"><g
         id="g14"
         clip-path="url(#clipPath18)"><g
           id="g20"
           transform="translate(403.4077,846.9995)"><path
             d="m 0,0 c 0,0 202.698,-69.849 232.829,-299.938 0,0 69.848,31.5 78.066,84.914 C 319.113,-161.61 271.177,-80.805 0,0"
             style="fill:#3782fa;fill-opacity:1;fill-rule:nonzero;stroke:none"
             id="path22" /></g><g
           id="g24"
           transform="translate(732.1074,688.1279)"><path
             d="m 0,0 c 0,0 99.979,-61.631 36.979,-116.414 -63.001,-54.784 -262.96,-89.023 -262.96,-89.023 0,0 264.329,24.652 342.395,73.958 C 194.48,-82.175 80.805,-27.392 0,0"
             style="fill:#3782fa;fill-opacity:1;fill-rule:nonzero;stroke:none"
             id="path26" /></g><g
           id="g28"
           transform="translate(530.7783,740.1724)"><path
             d="M 0,0 C 0,0 13.696,-219.133 93.132,-201.329 93.132,-201.329 67.109,-58.892 0,0"
             style="fill:#3782fa;fill-opacity:1;fill-rule:nonzero;stroke:none"
             id="path30" /></g><g
           id="g32"
           transform="translate(514.2012,636.2544)"><path
             d="m 0,0 c 0,0 -38.44,-16.329 -17.141,-35.648 1.815,-1.646 3.857,-3.022 5.993,-4.224 L 8.36,-50.845 c 0,0 -23.568,19.515 -8.36,50.845"
             style="fill:#3782fa;fill-opacity:1;fill-rule:nonzero;stroke:none"
             id="path34" /></g><g
           id="g36"
           transform="translate(530.7783,554.9634)"><path
             d="m 0,0 c 0,0 -410.874,71.534 -405.396,-46.25 0,0 -5.478,-43.827 69.849,-112.306 0,0 -72.588,112.306 63.001,143.806 C -136.958,16.75 0,0 0,0"
             style="fill:#3782fa;fill-opacity:1;fill-rule:nonzero;stroke:none"
             id="path38" /></g><g
           id="g40"
           transform="translate(281.5146,414.2119)"><path
             d="m 0,0 c 0,0 -106.538,50.901 40.257,85.572 19.055,4.501 38.393,7.671 57.864,9.733 38.642,4.092 121.72,12.397 145.646,10.838 C 243.767,106.143 -32.87,67.109 0,0"
             style="fill:#3782fa;fill-opacity:1;fill-rule:nonzero;stroke:none"
             id="path42" /></g><g
           id="g44"
           transform="translate(218.5142,369.0156)"><path
             d="m 0,0 c 0,0 408.135,-21.913 264.329,86.283 0,0 23.283,-50.674 -120.523,-68.478 L 0,0"
             style="fill:#3782fa;fill-opacity:1;fill-rule:nonzero;stroke:none"
             id="path46" /></g><g
           id="g48"
           transform="translate(152.3442,265.6143)"><path
             d="m 0,0 h 31.339 l -8.973,-46.424 c -5.288,-27.048 -29.388,-40.571 -72.301,-40.571 -38.146,0 -57.217,10.663 -57.217,31.989 0,2.686 0.302,5.547 0.91,8.582 l 6.632,34.461 h -13.394 L -110.663,0 H -65.8 l -9.883,-50.975 c -0.347,-1.56 -0.52,-3.078 -0.52,-4.551 0,-5.897 2.296,-10.534 6.892,-13.914 4.941,-3.729 12.179,-5.592 21.717,-5.592 10.748,0 19.506,2.341 26.267,7.022 6.155,4.246 9.926,9.926 11.314,17.035 z"
             style="fill:#3782fa;fill-opacity:1;fill-rule:nonzero;stroke:none"
             id="path50" /></g><g
           id="g52"
           transform="translate(303.9683,214.3799)"><path
             d="m 0,0 c 0,5.286 -2.298,9.405 -6.892,12.354 -4.596,2.946 -10.881,4.42 -18.856,4.42 -8.41,0 -16.04,-1.474 -22.887,-4.42 C -55.832,9.232 -61.076,4.896 -64.37,-0.65 l -1.82,-9.234 c -0.695,-3.728 1.82,-7.021 7.542,-9.883 5.462,-2.687 11.877,-4.031 19.246,-4.031 10.923,0 19.721,1.647 26.398,4.942 7.108,3.466 11.313,8.453 12.614,14.955 C -0.13,-2.516 0,-1.216 0,0 m 33.42,2.34 c 0,-1.995 -0.175,-4.075 -0.521,-6.241 -1.995,-10.058 -9.19,-17.881 -21.586,-23.473 -12.398,-5.591 -28.783,-8.387 -49.154,-8.387 -12.744,0 -23.452,2.21 -32.12,6.632 l -6.242,-32.25 h -31.339 l 14.954,77.503 h -13.394 l 2.341,11.964 h 42.522 v -9.623 c 11.097,7.803 25.531,11.704 43.304,11.704 34.155,0 51.235,-9.278 51.235,-27.829"
             style="fill:#3782fa;fill-opacity:1;fill-rule:nonzero;stroke:none"
             id="path54" /></g><g
           id="g56"
           transform="translate(593.5625,242.4678)"><path
             d="M 0,0 -12.094,-61.898 H -100 c -17.34,0 -30.884,2.621 -40.637,7.867 -9.753,5.244 -14.63,12.634 -14.63,22.172 0,1.906 0.173,3.856 0.52,5.851 l 2.731,14.044 H -165.41 L -163.069,0 h 44.863 l -5.071,-26.008 c -0.52,-2.6 -0.78,-4.986 -0.78,-7.152 0,-11.183 7.932,-16.775 23.797,-16.775 L -90.508,0 h 31.34 l -9.623,-49.935 h 27.568 L -31.471,0 Z"
             style="fill:#3782fa;fill-opacity:1;fill-rule:nonzero;stroke:none"
             id="path58" /></g><g
           id="g60"
           transform="translate(630.4277,249.0352)"><path
             d="m 0,0 c -2.386,2.383 -3.576,5.396 -3.576,9.037 0,4.855 1.928,9.168 5.787,12.94 3.856,3.77 8.257,5.656 13.198,5.656 3.727,0 6.805,-1.193 9.234,-3.576 2.425,-2.386 3.64,-5.397 3.64,-9.037 0,-4.857 -1.95,-9.168 -5.851,-12.94 C 18.53,-1.69 14.151,-3.576 9.298,-3.576 5.481,-3.576 2.383,-2.386 0,0 M 23.212,-12.939 12.419,-68.466 h -31.47 l 8.452,43.564 h -13.393 l 2.341,11.963 z"
             style="fill:#3782fa;fill-opacity:1;fill-rule:nonzero;stroke:none"
             id="path62" /></g><g
           id="g64"
           transform="translate(806.3047,216.3301)"><path
             d="m 0,0 c 0,-2.601 -0.305,-5.376 -0.91,-8.322 l -5.331,-27.439 h -31.47 l 5.982,30.299 c 0.26,1.386 0.39,2.687 0.39,3.901 0,4.942 -1.95,8.843 -5.851,11.704 -4.162,2.946 -10.101,4.421 -17.816,4.421 -10.751,0 -19.681,-2.731 -26.788,-8.192 -7.457,-5.81 -12.269,-14.262 -14.435,-25.357 l -3.38,-16.776 h -31.339 l 9.622,49.935 h -13.394 l 2.341,11.964 h 42.782 l -0.259,-11.964 -0.26,-1.3 c 10.575,10.229 25.833,15.345 45.773,15.345 C -14.781,28.219 0,18.811 0,0"
             style="fill:#3782fa;fill-opacity:1;fill-rule:nonzero;stroke:none"
             id="path66" /></g><g
           id="g68"
           transform="translate(906.3037,196.9541)"><path
             d="M 0,0 C 7.194,4.247 11.269,8.713 12.224,13.395 L 16.125,33.55 H -8.713 c -11.53,0 -21.674,-2.08 -30.429,-6.241 -9.017,-4.336 -14.174,-9.753 -15.474,-16.255 -0.175,-1.041 -0.261,-2.038 -0.261,-2.991 0,-5.462 3.164,-9.494 9.493,-12.094 4.855,-1.995 10.793,-2.991 17.816,-2.991 10.315,0 19.505,2.34 27.568,7.022 M 37.841,-16.385 H 10.403 l -1.3,8.452 c -11.791,-6.936 -24.752,-10.402 -38.882,-10.402 -38.146,0 -57.217,8.277 -57.217,24.837 0,1.386 0.173,2.903 0.52,4.552 2.08,11.008 10.619,19.635 25.618,25.877 13.784,5.722 30.644,8.583 50.585,8.583 h 28.739 l 2.21,11.183 H 7.152 l 2.34,11.963 h 44.864 z"
             style="fill:#3782fa;fill-opacity:1;fill-rule:nonzero;stroke:none"
             id="path70" /></g><text
           transform="matrix(1,0,0,-1,11.8169,1010.7842)"
           style="font-variant:normal;font-weight:normal;font-stretch:normal;font-size:33.9659px;font-family:'Kozuka Gothic Pr6N R';-inkscape-font-specification:KozGoPr6N-Regular;writing-mode:lr-tb;fill:#000000;fill-opacity:1;fill-rule:nonzero;stroke:none"
           id="text74"><tspan
             x="0 18.137791 36.853001 55.568211 74.283424 92.998634 103.52806 121.08843 129.00249 136.91655 144.8306 164.39496 189.86938 197.78343 216.49864 235.21385 243.12791 266.56439 292.03882 299.95285 318.66806 337.38327 356.09851 364.01254 383.71277 417.67868 436.39389 455.1091"
             y="0"
             sodipodi:role="line"
             id="tspan72">#3782fa   R： 55 G： 130 B：250</tspan></text></g></g></g></svg>
